<svg id="Layer_1" data-name="Layer 1" xmlns="http://www.w3.org/2000/svg" viewBox="0 0 503.07 305.85"><defs><style>.cls-1{fill:#4b443e;}.cls-2{fill:#f6df15;}.cls-3{fill:#655c57;}.cls-4{fill:#faef92;}.cls-5{fill:#81746e;}</style></defs><title>Logo</title><path class="cls-1" d="M58.39,334.94a2.89,2.89,0,0,1-1.09-3c1.21-1.51.48-3.07,0.29-4.7-0.32-2.82-2.66-4.94-2.54-7.86l42.87-.44q68.36,0.06,136.71.1c17,0,33.91-.15,50.87-0.24l3.18-.45c4.76,0.74,9.54.33,14.31,0.22,2.07,0.83,4.24.42,6.36,0.47,12.52,0.26,25.06-.49,37.58.41,7.68,0.75,15.37,1.32,23-.32l4.1,0a2,2,0,0,0,.77.59c14.8,0.45,29.59.41,44.39,0a2,2,0,0,0,.77-0.59c18.27,0,36.54.11,54.81,0.09,2.85,0,4.91-.69,3.36,3.93a135.14,135.14,0,0,0-5.54,20.11c-0.42,2.49-2.51,3.39-5.23,3.53-4.37.22-9-1.28-13.1,1.36-7.83,0-15.67.17-23.47-.25-4.31-.23-5.88,1.64-6.76,5.39-6.94,29.67-15.6,58.91-22.26,88.65-1.59,7.09-1.76,7-9.31,7H251.58c-6.56,0-6.57,0-6.57-6.38,0-29.65-.11-59.29.11-88.94,0-4.73-1.41-6-5.92-5.75-5.47.36-11,.08-16.48,0.09-6.72,0-6.73,0-6.73,6.57q0,54.46,0,108.93a34.31,34.31,0,0,1-.68,7.41c-1.49,6.84-.27,8.11,6.89,8.11l167.39,0c0.18,1.74,1.5,2.8,2.41,4.11a1.69,1.69,0,0,0,2,1.84c4.81,1.35,6.13,5.85,8.52,9.39,1.16,1.72,1,4.21,3.22,5.3,0.13,1.81.33,3.63,0.39,5.45,0.48,14.39-8.28,26.09-22.12,29.6-0.66-.77-1.31-0.92-1.94,0l-2.1.06c-0.9-1-2.11-.83-3.25-0.81-10.89.24-21.84,0.85-31.78-5a2.82,2.82,0,0,1-2-1.83c-2.27-3.35-3.81-2.82-7,2.4L332,532a1.81,1.81,0,0,0-2.1,1,12.94,12.94,0,0,1-6.85,2.06l-28.72-1.67-1.32-.64c-2.62-2.52-5.4-4.81-9-5.73l-1-1c-0.75-3.72-3.4-6.26-5.65-9l-0.66-1.36c0.79-10.06-.58-11.59-10.43-11.6-1.49,0-3,.06-4.48,0-3.93-.19-4.68,1.62-3.19,4.92l-0.33,2c-3.22,3.46-4.3,7.83-5.18,12.28l-0.7.73a4.83,4.83,0,0,0-3.47,3.53,2.36,2.36,0,0,1-1.79,1.62c-9.9,5-20.48,5.58-31.28,5a30.61,30.61,0,0,1-10-2.34c-3.72-1.48-6.69-4.45-10.72-5.2l-2.82.58c-5.11.74-8,5.17-12.37,7.25l-2,.3c-5.73-1.25-11.54-.42-17.31-0.58-6.69-.19-13.28-0.46-18.59-5.35-0.94-.87-2.16-0.72-3.32-0.6l-1.86-1.82c0.42-3.55-1.69-5.26-4.63-6.37a0.52,0.52,0,0,1-.38-0.62,14.61,14.61,0,0,0-3.17-10.42,4.93,4.93,0,0,1,0-3.85,36.76,36.76,0,0,0,4.2-13.4,0.51,0.51,0,0,1,.46-0.62,22.65,22.65,0,0,0,8.78-8.54l1.81-2.44c1.59-3.78-1.41-3-3.2-3-7.08-.1-14.16-0.09-21.24,0-3.34,0-5.4-1.15-5.43-4.79,0-1.49.13-3.11-2.07-3.2a0.28,0.28,0,0,1-.27-0.41,17.28,17.28,0,0,0-1.84-11c-0.95-1.83.64-5.17-2.9-5.59a2,2,0,0,1-.57-2.14c1.29-3.47.42-6.41-2.2-8.92a0.4,0.4,0,0,1-.39-0.5c1.17-4.9-1.62-9.11-2.74-13.55-0.35-1.38,1.73-4.83-2.2-4.79l0,0c-0.47-2.43,2-5.72-2.08-7.11l-0.23-.37c0.89-4-.54-7.7-1.83-11.18-0.64-1.73.8-5.22-2.93-5.42a1.92,1.92,0,0,1-.52-2.18c1-2,1.88-4-1.4-4.86a3.3,3.3,0,0,1-.49-3.18c-0.17-2.22.48-5.16-.7-6.49-2.25-2.55.09-6.82-3.7-8.39a1.76,1.76,0,0,1-.64-2.11c0-3.15.77-6.47-2.12-8.94a0.45,0.45,0,0,1-.41-0.56c-0.17-1.95,1.56-4.54-1.83-5.39a2,2,0,0,1-.57-2.14c1.18-5.82-.26-7.83-5.69-7.89-2.3,0-4.61-.09-6.91,0-2.89.14-4.91,0-5.08-4A10,10,0,0,0,58.39,334.94ZM208,506.67c-0.06,12.05,10.5,22.45,22.64,22.31,11.84-.14,22.22-10.55,22.31-22.37S242.71,484.16,230.88,484A22.7,22.7,0,0,0,208,506.67Zm147-.93c-1.12,12.54,9.69,23.23,22.11,23a22,22,0,0,0,22-21.82c0-13.45-10.4-22.57-21.67-22.7C364.53,484.07,354.45,494.07,355,505.74Zm95-172.41c-0.08-2.34-1.33-3.35-3.48-3.36-1.87,0-3.3.76-3.41,2.77-0.13,2.3,1.15,3.94,3.41,4C448.54,336.81,449.62,335.2,450,333.33Zm-93,0c-0.09-2.32-1.35-3.33-3.49-3.31-1.85,0-3.29.76-3.37,2.79-0.09,2.29,1.16,3.94,3.42,4C355.61,336.79,356.67,335.18,357,333.28Zm-31,.11c-0.06-2.3-1.2-3.41-3.39-3.42-1.83,0-3.34.65-3.48,2.69-0.16,2.29,1.09,4,3.33,4.08C324.53,336.86,325.63,335.28,326,333.39ZM295.69,333c-0.75-2-2-3.23-4.12-2.94s-3.47,1.54-3.3,3.67a3.12,3.12,0,0,0,3.33,3C293.76,336.61,295,335,295.69,333Zm120,3.94c1.73-.6,3.15-1.62,3.22-3.74a2.74,2.74,0,0,0-3-3.15,3.46,3.46,0,0,0-3.73,3.22C412,335.36,413.59,336.42,415.71,336.92ZM388,333.17c-0.13-2-1.13-3.21-3.11-3.16a3.42,3.42,0,0,0-3.65,3.3,3.13,3.13,0,0,0,3.4,3.43C386.67,336.66,387.75,335.13,388,333.17Zm-158,3.59c1.4-.41,3-0.86,3-3s-0.58-3.64-2.86-3.75c-2-.11-3.64,1-3.77,3S227.86,336.2,230,336.76ZM261,330a3.71,3.71,0,0,0-3.69,3.21c-0.31,2.32,1.68,3.24,3.39,3.41,2.08,0.21,3.21-1.44,3.33-3.43S263,330.16,261,330Z" transform="translate(-53.43 -231.09)"/><path class="cls-2" d="M288.69,318.32l-3.17.45c-1.54-.91-3.24-0.43-4.86-0.43q-88.54-.07-177.09-0.09c-1.82,0-3.65-.15-5.47-0.23-1.92-20.54,17.61-40,34.76-42.88,8.17-1.39,15.69-1.07,23.3,1.63,1.65,0.59,2.17-.08,3-1.42,7-10.7,16.65-16.78,29.75-16.54a5.82,5.82,0,0,0,4.1-1.33,52.45,52.45,0,0,1,6.58-4.42c7-4.12,7-4.09,12,2.72,2.21-2.34,3.85-5.24,7-6.56,1.23-.52.76-1.52-0.43-2.1-3.15-1.54-1.41-3,.12-4.46q5.29-4.94,10.61-9.84l0.86-.86,0.19-.14,2.24,0.88,0,0.08c-0.92,12.8-.1,25.61-0.33,38.42,0,2.72,1.78,3.08,3.67,2.71,7.7-1.52,13,2,17.49,7.74,1,1.3,2.42,2.3,3.49,3.57,2,2.39,3.73,2.15,5.76,0a75.12,75.12,0,0,1,7.84-7.69c3.64-2.91,2.89-5-.1-7.94-6.83-6.78-14.05-13.21-20.13-20.73,3.85-.1,6.8,2.3,9.94,3.92a7.88,7.88,0,0,0,6.19.67c12.53-3.72,23.86-1.84,33.65,7.13a4.92,4.92,0,0,0,5.47,1.18c20.9-8,44.72,1.27,56.78,16.29,1.78,2.22,3,2.44,5.3,1.11a79.15,79.15,0,0,1,7.6-3.44l2.74,0.55q0,0.86-.08,1.73c-1.84.24-1.62,1.95-2,3.07-2.81,7.81-5.6,15.63-8.2,23.51-1.12,3.39-2,6.12-5.5,1.81-0.79-1-1.91-1.63-3-.44-3.72,4.18-8.87,7.06-11.31,12.41a1.86,1.86,0,0,1-.38.46c-2-.16-4-0.43-5.93-0.45-12.82-.11-25.63-0.16-38.45-0.22l15.13-15.42c1.65-1.68,3.34-3.36,1-5.72,0.56-4.57,4.15-6.64,8.73-9.23-5.06-.85-6.49-4.51-9.37-7.35a12.92,12.92,0,0,1-7.79,7.57c1.67,1.95,4.72,2.08,4.67,5a4.32,4.32,0,0,0-1.85.46Q301.32,304.69,289.51,316C289,316.55,289,317.55,288.69,318.32Zm-87.81-22.93a7.69,7.69,0,0,0-7.33-7.35,7.43,7.43,0,1,0,.17,14.86A7.69,7.69,0,0,0,200.88,295.39Zm-41.4-10.34c4.52,1.5,6.46,4.56,8.94,7.73,1.46-4.25,4.21-6.46,8.88-7.85-4.89-1.8-7.33-4.72-9.27-8.86C166.42,280.52,163.69,282.82,159.48,285.06Zm-18.83,24.26c-0.17-1.82-5.39-6.7-6.42-6.24a10.44,10.44,0,0,0-6,6.07c-0.41,1.23,5,6.08,6.19,5.59A14.43,14.43,0,0,0,140.65,309.32Z" transform="translate(-53.43 -231.09)"/><path class="cls-3" d="M389.56,479.06l-167.39,0c-7.17,0-8.38-1.28-6.89-8.11a34.31,34.31,0,0,0,.68-7.41q0-54.46,0-108.93c0-6.56,0-6.57,6.73-6.57,5.5,0,11,.27,16.48-0.09,4.51-.3,6,1,5.92,5.75C244.91,383.31,245,413,245,442.6c0,6.38,0,6.38,6.57,6.38H392.49c7.55,0,7.72,0,9.31-7,6.65-29.74,15.32-59,22.26-88.65,0.88-3.75,2.45-5.62,6.76-5.39,7.81,0.42,15.65.2,23.47,0.25-1.26,6.46-3.12,12.77-4.77,19.13-1.33,5.12-2.47,10.33-3.82,15.47-2.6,9.91-4.5,20-7.85,29.74-1.74,5.07-2.59,10.57-3.94,15.86-2.1,8.23-4,16.49-6.25,24.7a131.36,131.36,0,0,0-3.7,16c-0.37,2.65-2.14,4.68-2.12,7.48,0,1.85-2.38,1.25-3.77,1.26-8,.05-16,0-24,0C392.5,477.85,390.69,477.24,389.56,479.06Zm20.46-17c-1.47.75-3,1.7-3,3.85s1.14,3.13,3.09,3c2.2-.19,3.84-1.45,3.58-3.8C413.54,463.38,412.16,462.3,410,462.09Zm-26.08,3.46c-0.36-1.6-1.25-3.09-3-3.29-2.36-.27-3.63,1.35-3.84,3.54a2.63,2.63,0,0,0,2.93,3.12C382.1,468.9,383.24,467.61,383.94,465.55Zm37-27.12c0-2.06-.85-3.31-2.89-3.34a3.49,3.49,0,0,0-3.82,3.1,3.14,3.14,0,0,0,3.21,3.58C419.51,441.86,420.57,440.25,421,438.44Zm-191-3.36c-2.35.16-3,1.64-2.94,3.73s1,3.15,3.05,3.1c2.38-.06,3-1.64,2.94-3.7S232,435.14,229.94,435.08ZM436.81,363c-1.24.19-3,.7-2.56,2.9a3.56,3.56,0,0,0,3.92,3,2.61,2.61,0,0,0,2.75-2.86C440.93,363.73,439.45,363,436.81,363Zm-4.42,27c1.65-.35,3.37-1.24,3.17-3.1a3.74,3.74,0,0,0-3.68-3.43c-1.78.08-2.81,1.69-2.81,3.55C429.05,389.07,430.29,390,432.39,390ZM353,465.35c-0.09-1.7-.61-3.37-2.79-3.1a3.51,3.51,0,0,0-3.16,3.8,2.61,2.61,0,0,0,2.73,2.87C352.12,469,353,467.62,353,465.35Zm-32.81,3.6c2.36-.29,2.92-1.86,2.78-3.89-0.11-1.66-.84-3-2.69-2.82a3.51,3.51,0,0,0-3.23,3.74C317,468,318.25,468.92,320.21,468.95Zm-27.21-3c-0.17-1.95-1.22-3.45-3.24-3.68-2.17-.24-2.73,1.42-2.76,3.25s0.67,3.28,2.74,3.42S292.81,468,293,465.92Zm-36-.38c0,2.06.83,3.33,2.89,3.38a2.67,2.67,0,0,0,3.05-3.05c-0.07-1.71-.62-3.45-2.6-3.7C257.91,461.86,257.49,463.88,257,465.54ZM230.46,469a2.75,2.75,0,0,0,2.47-3.4c-0.24-1.76-1.27-3.33-3.15-3.11A3.24,3.24,0,0,0,227,466C227.09,468,228.28,469,230.46,469Zm2.52-81c-0.15-2-1.3-3.06-3.24-2.9-1.78.15-3.36,1.16-3.29,3s1.61,2.82,3.43,2.88C231.88,391,232.9,389.91,233,387.95Zm192.5,27a3,3,0,0,0-.66-5.92c-2.07.1-2.94,1.43-2.75,3.38C422.25,414.24,423.44,415,425.48,415ZM233,411.8a2.7,2.7,0,0,0-2.72-2.74c-2-.11-3.18.89-3.23,2.93a2.63,2.63,0,0,0,2.68,3C231.73,415.08,232.84,414.07,233,411.8ZM233,366c-0.07-1.95-1.08-3-3.11-3a2.62,2.62,0,0,0-2.81,2.83,2.7,2.7,0,0,0,3.08,3.06C231.92,368.89,232.84,367.87,233,366Z" transform="translate(-53.43 -231.09)"/><path class="cls-2" d="M384,534.74c13.84-3.51,22.6-15.21,22.12-29.6-0.06-1.82-.26-3.63-0.39-5.45l49.18-47.49c0.84-.81,1.62-1.72,3-1.53l0.88,0.45,0.08,0.1q0.06,39.32.16,78.64a20.57,20.57,0,0,1-1.11,6.8l-66.89.08c-0.35-.52-0.68-0.46-1,0-2.1-.19-4.46,1-6.17-1.19A3.83,3.83,0,0,0,384,534.74Z" transform="translate(-53.43 -231.09)"/><path class="cls-4" d="M457.89,536.68a20.57,20.57,0,0,0,1.11-6.8q-0.15-39.32-.16-78.64c5,3.39,8.48,8.22,12.6,12.46,11.07,11.4,22.37,22.57,33.56,33.84a4.12,4.12,0,0,0,3,1.58l-37.35,36Zm10-26.6c-0.9,1.47-1.49,2.62-2.24,3.65-2.6,3.53-2.37,6.13-.09,9.57,1.79,2.7,2.21,2,4.5.17,4.66-3.72,5.43-6.42.07-9.86C469.18,513,468.79,511.54,467.9,510.08Z" transform="translate(-53.43 -231.09)"/><path class="cls-4" d="M250,248.84c6.07,7.52,13.3,14,20.13,20.73,3,3,3.73,5,.1,7.94a75.12,75.12,0,0,0-7.84,7.69c-2,2.18-3.77,2.42-5.76,0-1.06-1.27-2.47-2.27-3.49-3.57-4.47-5.72-9.8-9.26-17.49-7.74-1.89.37-3.71,0-3.67-2.71,0.23-12.8-.58-25.62.33-38.42,5,3,8.28,7.8,12.54,11.57C246.54,245.87,248.26,247.35,250,248.84Z" transform="translate(-53.43 -231.09)"/><path class="cls-2" d="M470.62,535.13l37.35-36c2.68-1.9,3.82-5.85,7.88-5.9,0.05,12.24.06,24.48,0.2,36.72a20.12,20.12,0,0,1-1.16,6.75q-20.61.08-41.22,0.18C472.27,536.86,471,536.87,470.62,535.13Z" transform="translate(-53.43 -231.09)"/><path class="cls-4" d="M514.89,536.67a20.12,20.12,0,0,0,1.16-6.75c-0.14-12.24-.14-24.48-0.2-36.72q19.15,19.24,38.28,38.5c1,1,3,1.74,2.17,3.47s-2.71.72-4.11,0.73c-8.82.08-17.63,0.07-26.45,0A50.78,50.78,0,0,0,514.89,536.67Z" transform="translate(-53.43 -231.09)"/><path class="cls-4" d="M347.54,318.33c2.43-5.35,7.58-8.23,11.31-12.41,1.06-1.19,2.18-.53,3,0.44,3.49,4.31,4.39,1.58,5.5-1.81,2.6-7.88,5.39-15.7,8.2-23.51,0.4-1.12.19-2.83,2-3.07,3.44,1.64,3.12,5.57,5,8.21,1.41,2,1.85,4.63,3.74,6.39-0.42,2,.89,3.42,1.59,5,3,6.9,6.77,13.45,9.15,20.62-1.8.08-3.6,0.15-5.39,0.26-5.85.36-11.75-.78-17.56,0.65l-4.1,0C362.53,317.59,355,319.07,347.54,318.33Z" transform="translate(-53.43 -231.09)"/><path class="cls-2" d="M397,318.23c-2.38-7.17-6.16-13.72-9.15-20.62-0.71-1.62-2-3.06-1.59-5,14.37,3.79,25.32,12.32,33.66,24.4a2.85,2.85,0,0,1-.11,1.45Z" transform="translate(-53.43 -231.09)"/><path class="cls-5" d="M98.1,318c1.82,0.08,3.65.23,5.47,0.23q88.54,0,177.09.09c1.62,0,3.32-.48,4.86.43-17,.08-33.92.24-50.88,0.24q-68.36,0-136.71-.1A1.41,1.41,0,0,1,98.1,318Z" transform="translate(-53.43 -231.09)"/><path class="cls-3" d="M195.11,526.57c4,0.75,7,3.71,10.72,5.2a30.61,30.61,0,0,0,10,2.34c10.8,0.53,21.38-.07,31.28-5-3.15,3.53-7.4,4.87-11.82,5.44-9.53,1.24-19.14,2.69-28.57-.49A25.25,25.25,0,0,1,195.11,526.57Z" transform="translate(-53.43 -231.09)"/><path class="cls-3" d="M138.69,528.16c1.17-.12,2.38-0.26,3.32.6,5.31,4.89,11.9,5.17,18.59,5.35,5.77,0.16,11.58-.66,17.31.58a4.22,4.22,0,0,1-1.68,1c-11.91-.27-24.18,1.83-35.08-5.18A17.64,17.64,0,0,1,138.69,528.16Z" transform="translate(-53.43 -231.09)"/><path class="cls-3" d="M397,318.23l22.81,0.19a0.7,0.7,0,0,1,.16.7,2,2,0,0,1-.77.59c-14.8.42-29.59,0.47-44.39,0a2,2,0,0,1-.77-0.59c5.81-1.43,11.71-.29,17.56-0.65C393.41,318.37,395.21,318.31,397,318.23Z" transform="translate(-53.43 -231.09)"/><path class="cls-3" d="M344.92,529c9.94,5.84,20.88,5.24,31.78,5,1.14,0,2.35-.18,3.25.81-9.61.7-19.27,2.41-28.61-1.61C349,532.21,346.38,531.48,344.92,529Z" transform="translate(-53.43 -231.09)"/><path class="cls-3" d="M111.94,469c2.2,0.09,2.06,1.72,2.07,3.2,0,3.63,2.1,4.82,5.43,4.79,7.08-.07,14.16-0.07,21.24,0,1.79,0,4.78-.74,3.2,3-0.89-2-2.71-1.5-4.3-1.51-6.81,0-13.64-.39-20.42.11-4.71.35-6.1-1.9-6.62-5.76C112.37,471.61,112.14,470.31,111.94,469Z" transform="translate(-53.43 -231.09)"/><path class="cls-3" d="M58.39,334.94A10,10,0,0,1,61.72,342c0.18,4,2.19,4.11,5.08,4,2.3-.11,4.6,0,6.91,0,5.43,0.06,6.87,2.07,5.69,7.89-0.75-5.1-3.42-6.9-8.78-6.63-9.8.5-9.83,0.14-12.06-9.34A17.36,17.36,0,0,1,58.39,334.94Z" transform="translate(-53.43 -231.09)"/><path class="cls-3" d="M294.36,533.37L323.08,535c-4,2.46-8.32.38-12.49,0.69C305.07,536.15,299.5,536,294.36,533.37Z" transform="translate(-53.43 -231.09)"/><path class="cls-3" d="M258.6,508.89c-1.49-3.3-.74-5.11,3.19-4.92,1.49,0.07,3,0,4.48,0,9.84,0,11.22,1.54,10.43,11.6a4.51,4.51,0,0,1-.81-1.2c-0.75-2.8.22-6.89-2.29-8.2-3.57-1.85-8-.43-12.1-0.63C259.08,505.45,259.35,507.59,258.6,508.89Z" transform="translate(-53.43 -231.09)"/><path class="cls-3" d="M98.82,422.13c3.94,0,1.85,3.41,2.2,4.79,1.12,4.44,3.91,8.65,2.74,13.55A96.54,96.54,0,0,1,98.82,422.13Z" transform="translate(-53.43 -231.09)"/><path class="cls-3" d="M106.93,452c3.54,0.42,2,3.76,2.9,5.59a17.28,17.28,0,0,1,1.84,11A112,112,0,0,1,106.93,452Z" transform="translate(-53.43 -231.09)"/><path class="cls-3" d="M91.78,398.11c3.73,0.19,2.29,3.68,2.93,5.42,1.29,3.47,2.73,7.22,1.83,11.18C94.3,409.35,93.22,403.68,91.78,398.11Z" transform="translate(-53.43 -231.09)"/><path class="cls-3" d="M85,373c3.79,1.57,1.45,5.85,3.7,8.39,1.17,1.33.52,4.27,0.7,6.49C86.36,383.39,86.2,378,85,373Z" transform="translate(-53.43 -231.09)"/><path class="cls-3" d="M179.93,534.4c4.32-2.08,7.26-6.51,12.37-7.25C189.25,531.41,184.76,533.19,179.93,534.4Z" transform="translate(-53.43 -231.09)"/><path class="cls-3" d="M253.08,523.17c0.88-4.45,2-8.81,5.18-12.28C257.83,515.53,256.39,519.75,253.08,523.17Z" transform="translate(-53.43 -231.09)"/><path class="cls-3" d="M55.05,319.35c-0.12,2.92,2.22,5,2.54,7.86,0.18,1.63.91,3.19-.29,4.7-1.14-3.33-2.29-6.66-3.42-10C53.48,320.72,52.7,319.31,55.05,319.35Z" transform="translate(-53.43 -231.09)"/><path class="cls-3" d="M132.84,491.68a36.76,36.76,0,0,1-4.2,13.4C128.65,500.18,129.69,495.6,132.84,491.68Z" transform="translate(-53.43 -231.09)"/><path class="cls-3" d="M142.08,482.51a22.65,22.65,0,0,1-8.78,8.54C135.11,487.07,137.8,484,142.08,482.51Z" transform="translate(-53.43 -231.09)"/><path class="cls-3" d="M284,527c3.64,0.92,6.41,3.21,9,5.73A13.07,13.07,0,0,1,284,527Z" transform="translate(-53.43 -231.09)"/><path class="cls-3" d="M277.36,516.95c2.25,2.79,4.9,5.32,5.65,9A13.47,13.47,0,0,1,277.36,516.95Z" transform="translate(-53.43 -231.09)"/><path class="cls-3" d="M128.66,508.92a14.61,14.61,0,0,1,3.17,10.42C129.39,516.29,129,512.62,128.66,508.92Z" transform="translate(-53.43 -231.09)"/><path class="cls-3" d="M104.16,441c2.62,2.51,3.49,5.44,2.2,8.92C105.63,446.92,103.69,444.24,104.16,441Z" transform="translate(-53.43 -231.09)"/><path class="cls-3" d="M82.21,362c2.89,2.46,2.14,5.78,2.12,8.94C82.94,368.09,81.71,365.23,82.21,362Z" transform="translate(-53.43 -231.09)"/><path class="cls-3" d="M132.2,520c2.94,1.11,5,2.82,4.63,6.37A9.56,9.56,0,0,1,132.2,520Z" transform="translate(-53.43 -231.09)"/><path class="cls-3" d="M335.94,529.6c3.15-5.22,4.7-5.75,7-2.4C339.51,524.91,338.48,529.46,335.94,529.6Z" transform="translate(-53.43 -231.09)"/><path class="cls-3" d="M96.78,415.06c4.05,1.38,1.61,4.67,2.08,7.11C96.45,420.3,97.74,417.35,96.78,415.06Z" transform="translate(-53.43 -231.09)"/><path class="cls-3" d="M248.91,527.44a4.83,4.83,0,0,1,3.47-3.53A4.17,4.17,0,0,1,248.91,527.44Z" transform="translate(-53.43 -231.09)"/><path class="cls-3" d="M80,356c3.38,0.86,1.66,3.45,1.83,5.39C79.86,360.06,80.9,357.7,80,356Z" transform="translate(-53.43 -231.09)"/><path class="cls-3" d="M89.86,391.07c3.28,0.81,2.42,2.81,1.4,4.86Z" transform="translate(-53.43 -231.09)"/><path class="cls-3" d="M384,534.74a3.83,3.83,0,0,1-.16.86l-1.78-.82C382.68,533.82,383.33,534,384,534.74Z" transform="translate(-53.43 -231.09)"/><path class="cls-3" d="M394,485a1.69,1.69,0,0,1-2-1.84C393.22,483.15,394.18,483.44,394,485Z" transform="translate(-53.43 -231.09)"/><path class="cls-3" d="M329.93,533a1.81,1.81,0,0,1,2.1-1C331.69,533.11,330.9,533.24,329.93,533Z" transform="translate(-53.43 -231.09)"/><path class="cls-4" d="M377.64,276.24l-2.74-.55C376,275.05,377.08,274.28,377.64,276.24Z" transform="translate(-53.43 -231.09)"/><path class="cls-4" d="M232.25,232.71l-2.24-.88C231.48,230.3,231.89,231.44,232.25,232.71Z" transform="translate(-53.43 -231.09)"/><path class="cls-4" d="M458.76,451.13l-0.88-.45C458.52,450.14,458.8,450.32,458.76,451.13Z" transform="translate(-53.43 -231.09)"/><path class="cls-4" d="M229.82,232l-0.86.86Z" transform="translate(-53.43 -231.09)"/><path class="cls-4" d="M390,536.79c0.32-.49.65-0.55,1,0Z" transform="translate(-53.43 -231.09)"/><path class="cls-3" d="M208,506.67A22.7,22.7,0,0,1,230.88,484c11.83,0.13,22.18,10.71,22.09,22.58S242.51,528.83,230.66,529C218.52,529.12,208,518.72,208,506.67Zm22.89,6.44c3.79-.26,6.09-2.24,6.13-6.49s-2.34-6.73-6.67-6.68-6.59,2.55-6.42,6.92S226.54,513,230.91,513.11Z" transform="translate(-53.43 -231.09)"/><path class="cls-3" d="M355,505.74c-0.53-11.67,9.55-21.67,22.41-21.52,11.27,0.13,21.69,9.25,21.67,22.7a22,22,0,0,1-22,21.82C364.67,529,353.86,518.28,355,505.74Zm22,7.3c3.24,0,6.95-3.59,6.89-6.62s-3.79-6.5-7-6.47c-4,0-6.76,2.65-6.85,6.38C369.9,510.27,372.83,513.08,377,513Z" transform="translate(-53.43 -231.09)"/><path class="cls-4" d="M288.69,318.32c0.26-.77.3-1.77,0.82-2.28q11.8-11.37,23.74-22.59a4.32,4.32,0,0,1,1.85-.46c2.47,0.18,1.42,3.69,3.77,4,2.38,2.36.69,4-1,5.72l-15.13,15.42a0.36,0.36,0,0,0,.22.42C298.23,318.65,293.45,319.06,288.69,318.32Z" transform="translate(-53.43 -231.09)"/><path class="cls-3" d="M347.54,318.33c7.46,0.73,15-.74,22.42.78-7.65,1.64-15.33,1.07-23,.32a3,3,0,0,1,.22-0.64A1.86,1.86,0,0,0,347.54,318.33Z" transform="translate(-53.43 -231.09)"/><path class="cls-5" d="M347.16,318.79a3,3,0,0,0-.22.64c-12.52-.9-25.05-0.15-37.57-0.41-2.13,0-4.29.36-6.36-.47a0.36,0.36,0,0,1-.22-0.42c12.81,0.07,25.63.12,38.44,0.22C343.2,318.36,345.18,318.63,347.16,318.79Z" transform="translate(-53.43 -231.09)"/><path class="cls-5" d="M450,333.33c-0.37,1.87-1.44,3.49-3.48,3.42-2.25-.07-3.53-1.71-3.41-4,0.11-2,1.54-2.77,3.41-2.77C448.65,330,449.9,331,450,333.33Z" transform="translate(-53.43 -231.09)"/><path class="cls-5" d="M357,333.28c-0.34,1.9-1.4,3.51-3.44,3.47-2.26-.05-3.51-1.7-3.42-4,0.08-2,1.51-2.78,3.37-2.79C355.66,329.95,356.92,331,357,333.28Z" transform="translate(-53.43 -231.09)"/><path class="cls-5" d="M326,333.39c-0.39,1.89-1.49,3.47-3.53,3.35-2.25-.13-3.49-1.79-3.33-4.08,0.14-2,1.64-2.69,3.48-2.69C324.82,330,326,331.09,326,333.39Z" transform="translate(-53.43 -231.09)"/><path class="cls-5" d="M295.69,333c-0.7,2-1.93,3.62-4.09,3.78a3.12,3.12,0,0,1-3.33-3c-0.17-2.13,1.33-3.4,3.3-3.67S294.94,331,295.69,333Z" transform="translate(-53.43 -231.09)"/><path class="cls-5" d="M415.71,336.92c-2.12-.5-3.68-1.56-3.51-3.67a3.46,3.46,0,0,1,3.73-3.22,2.74,2.74,0,0,1,3,3.15C418.86,335.31,417.44,336.32,415.71,336.92Z" transform="translate(-53.43 -231.09)"/><path class="cls-5" d="M388,333.17c-0.25,2-1.33,3.49-3.36,3.57a3.13,3.13,0,0,1-3.4-3.43,3.42,3.42,0,0,1,3.65-3.3C386.87,330,387.87,331.14,388,333.17Z" transform="translate(-53.43 -231.09)"/><path class="cls-5" d="M230,336.76c-2.15-.56-3.72-1.68-3.59-3.71s1.73-3.13,3.77-3c2.28,0.12,2.94,1.7,2.86,3.75S231.41,336.35,230,336.76Z" transform="translate(-53.43 -231.09)"/><path class="cls-5" d="M261,330c2,0.19,3.14,1.26,3,3.19s-1.25,3.64-3.33,3.43c-1.71-.17-3.7-1.1-3.39-3.41A3.71,3.71,0,0,1,261,330Z" transform="translate(-53.43 -231.09)"/><path class="cls-4" d="M200.88,295.39a7.69,7.69,0,0,1-7.16,7.51,7.43,7.43,0,1,1-.17-14.86A7.69,7.69,0,0,1,200.88,295.39Z" transform="translate(-53.43 -231.09)"/><path class="cls-4" d="M140.65,309.32a14.43,14.43,0,0,1-6.19,5.43c-1.15.49-6.6-4.36-6.19-5.59a10.44,10.44,0,0,1,6-6.07C135.26,302.62,140.48,307.5,140.65,309.32Z" transform="translate(-53.43 -231.09)"/><path class="cls-5" d="M410,462.09c2.15,0.21,3.52,1.29,3.71,3,0.26,2.35-1.38,3.62-3.58,3.8-2,.17-3.09-1-3.09-3S408.54,462.84,410,462.09Z" transform="translate(-53.43 -231.09)"/><path class="cls-5" d="M383.94,465.55c-0.7,2.05-1.84,3.35-3.92,3.36a2.63,2.63,0,0,1-2.93-3.12c0.21-2.19,1.47-3.81,3.84-3.54C382.68,462.46,383.58,464,383.94,465.55Z" transform="translate(-53.43 -231.09)"/><path class="cls-5" d="M421,438.44c-0.4,1.81-1.46,3.43-3.5,3.35a3.14,3.14,0,0,1-3.21-3.58,3.49,3.49,0,0,1,3.82-3.1C420.12,435.13,421,436.38,421,438.44Z" transform="translate(-53.43 -231.09)"/><path class="cls-5" d="M229.94,435.08c2,0.06,3,1.15,3.06,3.12s-0.56,3.65-2.94,3.7c-2,0-3-1.15-3.05-3.1S227.59,435.24,229.94,435.08Z" transform="translate(-53.43 -231.09)"/><path class="cls-5" d="M436.81,363c2.64,0,4.12.73,4.11,3.09a2.61,2.61,0,0,1-2.75,2.86,3.56,3.56,0,0,1-3.92-3C433.85,363.7,435.57,363.18,436.81,363Z" transform="translate(-53.43 -231.09)"/><path class="cls-5" d="M432.39,390c-2.09,0-3.33-.92-3.33-3,0-1.87,1-3.48,2.81-3.55a3.74,3.74,0,0,1,3.68,3.43C435.75,388.75,434,389.64,432.39,390Z" transform="translate(-53.43 -231.09)"/><path class="cls-5" d="M353,465.35c0,2.27-.9,3.65-3.22,3.57a2.61,2.61,0,0,1-2.73-2.87,3.51,3.51,0,0,1,3.16-3.8C352.41,462,352.93,463.65,353,465.35Z" transform="translate(-53.43 -231.09)"/><path class="cls-5" d="M320.21,468.95c-2,0-3.17-1-3.14-3a3.51,3.51,0,0,1,3.23-3.74c1.85-.22,2.57,1.16,2.69,2.82C323.13,467.08,322.57,468.66,320.21,468.95Z" transform="translate(-53.43 -231.09)"/><path class="cls-5" d="M293,465.92c-0.19,2.1-1.28,3.13-3.26,3s-2.77-1.54-2.74-3.42,0.59-3.49,2.76-3.25C291.78,462.47,292.83,464,293,465.92Z" transform="translate(-53.43 -231.09)"/><path class="cls-5" d="M257,465.54c0.48-1.67.9-3.68,3.34-3.37,2,0.25,2.53,2,2.6,3.7a2.67,2.67,0,0,1-3.05,3.05C257.84,468.87,257,467.6,257,465.54Z" transform="translate(-53.43 -231.09)"/><path class="cls-5" d="M230.46,469c-2.18,0-3.37-.91-3.42-2.93a3.24,3.24,0,0,1,2.73-3.58c1.88-.22,2.91,1.35,3.15,3.11A2.75,2.75,0,0,1,230.46,469Z" transform="translate(-53.43 -231.09)"/><path class="cls-5" d="M233,387.95c-0.08,2-1.1,3.07-3.09,3-1.82-.07-3.37-1.08-3.43-2.88s1.51-2.87,3.29-3C231.68,384.89,232.83,385.9,233,387.95Z" transform="translate(-53.43 -231.09)"/><path class="cls-5" d="M425.48,415c-2,0-3.23-.74-3.41-2.54-0.19-1.95.68-3.28,2.75-3.38A3,3,0,0,1,425.48,415Z" transform="translate(-53.43 -231.09)"/><path class="cls-5" d="M233,411.8c-0.15,2.27-1.27,3.28-3.26,3.15a2.63,2.63,0,0,1-2.68-3c0-2,1.23-3,3.23-2.93A2.7,2.7,0,0,1,233,411.8Z" transform="translate(-53.43 -231.09)"/><path class="cls-5" d="M233,366c-0.14,1.83-1.06,2.85-2.84,2.89a2.7,2.7,0,0,1-3.08-3.06,2.62,2.62,0,0,1,2.81-2.83C231.89,363,232.91,364.1,233,366Z" transform="translate(-53.43 -231.09)"/><path class="cls-1" d="M230.91,513.11c-4.38-.13-6.8-2-7-6.25s2.17-6.88,6.42-6.92,6.71,2.35,6.67,6.68S234.7,512.85,230.91,513.11Z" transform="translate(-53.43 -231.09)"/><path class="cls-1" d="M377,513c-4.17,0-7.11-2.77-7-6.72,0.1-3.73,2.9-6.34,6.85-6.38,3.25,0,7,3.4,7,6.47S380.24,513,377,513Z" transform="translate(-53.43 -231.09)"/></svg>